<?xml version="1.0" encoding="iso-8859-1"?>
<!-- Uploaded to: SVG Repo, www.svgrepo.com, Generator: SVG Repo Mixer Tools -->
<svg height="800px" width="800px" version="1.1" id="Layer_1" xmlns="http://www.w3.org/2000/svg" xmlns:xlink="http://www.w3.org/1999/xlink" 
	 viewBox="0 0 512 512" xml:space="preserve">
<g>
	<path style="fill:#64C37D;" d="M257.222,173.928c0,0-9.823-127.235,119.043-125.301
		C376.265,48.628,382.964,162.652,257.222,173.928z"/>
	<path style="fill:#64C37D;" d="M251.927,170.733c0,0-127.235,9.823-125.301-119.043C126.628,51.69,240.652,44.991,251.927,170.733z
		"/>
</g>
<path style="fill:#458C62;" d="M256.131,172.813c0,0-96.071-83.997-2.68-172.813C253.451,0,338.046,76.749,256.131,172.813z"/>
<path style="fill:#FFE98F;" d="M255.999,495.766L255.999,495.766c-65.477,0-119.048-53.572-119.048-119.048V258.382
	c0-65.477,53.572-119.048,119.048-119.048l0,0c65.477,0,119.048,53.572,119.048,119.048v118.335
	C375.047,442.194,321.476,495.766,255.999,495.766z"/>
<g>
	<path style="fill:#FFDA44;" d="M255.999,139.335L255.999,139.335c65.477,0,119.048,53.572,119.048,119.048v118.335
		c0,65.477-53.572,119.048-119.048,119.048l0,0V139.335z"/>
	<path style="fill:#FFDA44;" d="M255.999,123.1c-74.595,0-135.283,60.688-135.283,135.283v118.335
		c0,74.594,60.688,135.282,135.283,135.282s135.283-60.688,135.283-135.282V258.382C391.282,183.788,330.594,123.1,255.999,123.1z
		 M356.55,398.192l-36.96-36.96l39.224-39.224v54.709C358.813,384.081,358.028,391.263,356.55,398.192z M153.185,258.382
		c0-5.558,0.449-11.012,1.303-16.334l41.366,41.366l-40.487,40.487l-2.183-2.183L153.185,258.382L153.185,258.382z M218.813,306.373
		l54.858,54.858l-40.487,40.487l-54.858-54.858L218.813,306.373z M241.772,283.415l41.199-41.199l54.858,54.858l-41.199,41.199
		L241.772,283.415z M358.813,258.382v13.757l-52.883-52.883l27.937-27.937C349.404,209.337,358.813,232.78,358.813,258.382z
		 M308.972,170.297l-26.001,26.001l-39.917-39.917c4.242-0.535,8.561-0.813,12.945-0.813
		C275.362,155.569,293.491,160.953,308.972,170.297z M208.157,167.402l51.855,51.855l-41.199,41.199l-52.425-52.425
		C176.105,190.806,190.641,176.65,208.157,167.402z M153.185,376.718v-9.083l57.041,57.041l-25.788,25.788
		C165.177,431.768,153.185,405.619,153.185,376.718z M211.451,469.37l21.735-21.735l31.523,31.523
		c-2.872,0.242-5.776,0.372-8.709,0.372C240.049,479.531,224.936,475.881,211.451,469.37z M300.741,469.273l-44.597-44.597
		l40.487-40.487l46.037,46.037l2.671-2.671C335.05,445.565,319.475,460.181,300.741,469.273z"/>
</g>
<path style="fill:#F9C82D;" d="M256.047,169.374l-0.109,45.808l4.075,4.075l-3.963,3.963l-0.018,45.936l26.942-26.942l54.858,54.858
	l-41.199,41.199l-40.557-40.557l-0.109,45.807l17.707,17.709l-17.689,17.689l0.039,91.549l8.688,8.688
	c-2.872,0.242-5.776,0.372-8.709,0.372c0,5.828,0,23.594,0,32.469c74.595,0,135.283-60.688,135.283-135.282V258.382
	c0-74.595-60.688-135.283-135.283-135.283c0,11.927,0,23.829,0,32.469c19.363,0,37.492,5.383,52.973,14.728l-26.001,26.001
	L256.047,169.374 M300.741,469.273l-44.597-44.597l40.487-40.487l46.037,46.037l2.671-2.671
	C335.05,445.565,319.475,460.181,300.741,469.273z M358.813,376.718c0,7.363-0.785,14.545-2.263,21.474l-36.96-36.96l39.224-39.224
	V376.718z M358.813,272.14l-52.883-52.883l27.937-27.937c15.537,18.016,24.946,41.461,24.946,67.062V272.14z"/>
</svg>